<svg width="27" height="26" viewBox="0 0 27 26" fill="none" xmlns="http://www.w3.org/2000/svg">
<path d="M0.504 25V24.232L3.224 23.592V2.008L0.504 1.4V0.631998H9.832V1.4L6.824 2.008V23.672H15.8C16.376 22.7013 16.872 21.7253 17.288 20.744C17.704 19.7627 18.104 18.664 18.488 17.448H19.432L18.232 25H0.504ZM24.1288 25.336C23.4568 25.336 22.9128 25.1173 22.4968 24.68C22.0914 24.232 21.8888 23.6987 21.8888 23.08C21.8888 22.4187 22.0914 21.8747 22.4968 21.448C22.9128 21.0107 23.4514 20.792 24.1128 20.792C24.8168 20.792 25.3768 21.0107 25.7928 21.448C26.2194 21.8747 26.4328 22.4187 26.4328 23.08C26.4328 23.6987 26.2194 24.232 25.7928 24.68C25.3768 25.1173 24.8221 25.336 24.1288 25.336Z" fill="#FFA500"/>
</svg>
